<?xml version="1.0" encoding="UTF-8"?>
<!DOCTYPE svg PUBLIC "-//W3C//DTD SVG 1.1//EN" "http://www.w3.org/Graphics/SVG/1.1/DTD/svg11.dtd">
<svg xmlns="http://www.w3.org/2000/svg" version="1.1" width="512px" height="512px" style="shape-rendering:geometricPrecision; text-rendering:geometricPrecision; image-rendering:optimizeQuality; fill-rule:evenodd; clip-rule:evenodd" xmlns:xlink="http://www.w3.org/1999/xlink">
<g><path style="opacity:0.957" fill="#fefffe" d="M 314.5,105.5 C 333.312,104.811 342.145,113.811 341,132.5C 340.275,134.949 339.275,137.283 338,139.5C 300.014,178.319 261.847,216.986 223.5,255.5C 261.847,294.014 300.014,332.681 338,371.5C 343.228,382.629 341.395,392.463 332.5,401C 322.449,406.83 312.783,406.163 303.5,399C 261,356.5 218.5,314 176,271.5C 167.783,261.429 167.45,251.096 175,240.5C 218.167,197.333 261.333,154.167 304.5,111C 307.767,108.87 311.1,107.037 314.5,105.5 Z"/></g>
</svg>
