<?xml version="1.0" encoding="UTF-8"?>
<!DOCTYPE svg PUBLIC "-//W3C//DTD SVG 1.1//EN" "http://www.w3.org/Graphics/SVG/1.1/DTD/svg11.dtd">
<svg xmlns="http://www.w3.org/2000/svg" version="1.1" width="512px" height="512px" style="shape-rendering:geometricPrecision; text-rendering:geometricPrecision; image-rendering:optimizeQuality; fill-rule:evenodd; clip-rule:evenodd" xmlns:xlink="http://www.w3.org/1999/xlink">
<g><path style="opacity:0.989" fill="#2b2b2b" d="M 249.5,24.5 C 330.254,25.9291 387.754,62.9291 422,135.5C 444.629,195.881 438.629,253.214 404,307.5C 361.552,365.615 318.719,423.448 275.5,481C 258.176,492.189 242.342,490.355 228,475.5C 186,416.833 144,358.167 102,299.5C 67.4201,238.24 66.7535,176.573 100,114.5C 134.522,59.3124 184.356,29.3124 249.5,24.5 Z"/></g>
<g><path style="opacity:1" fill="#f34235" d="M 238.5,57.5 C 306.686,53.9934 356.853,81.9934 389,141.5C 409.689,188.433 407.689,234.433 383,279.5C 340.489,338.522 297.489,397.188 254,455.5C 212,396.833 170,338.167 128,279.5C 108.182,243.475 103.182,205.475 113,165.5C 133.418,104.58 175.251,68.5799 238.5,57.5 Z"/></g>
<g><path style="opacity:1" fill="#2c2b2b" d="M 244.5,127.5 C 285.655,125.477 314.488,143.144 331,180.5C 342.269,222.387 329.769,254.887 293.5,278C 254.359,295.373 220.526,288.206 192,256.5C 170.1,223.782 170.1,191.115 192,158.5C 205.982,142.096 223.482,131.763 244.5,127.5 Z"/></g>
<g><path style="opacity:1" fill="#f3f3f3" d="M 246.5,159.5 C 275.621,157.797 294.454,170.797 303,198.5C 305.622,226.855 293.455,245.355 266.5,254C 237.318,258.328 218.152,246.495 209,218.5C 205.045,188.302 217.545,168.636 246.5,159.5 Z"/></g>
</svg>
