<?xml version="1.0" encoding="UTF-8"?>
<!DOCTYPE svg PUBLIC "-//W3C//DTD SVG 1.1//EN" "http://www.w3.org/Graphics/SVG/1.1/DTD/svg11.dtd">
<svg xmlns="http://www.w3.org/2000/svg" version="1.1" width="512px" height="512px" style="shape-rendering:geometricPrecision; text-rendering:geometricPrecision; image-rendering:optimizeQuality; fill-rule:evenodd; clip-rule:evenodd" xmlns:xlink="http://www.w3.org/1999/xlink">
<g><path style="opacity:0.988" fill="#3d9ae2" d="M 249.5,24.5 C 330.254,25.9291 387.754,62.9291 422,135.5C 444.629,195.881 438.629,253.214 404,307.5C 361.552,365.615 318.719,423.448 275.5,481C 258.176,492.189 242.342,490.355 228,475.5C 186,416.833 144,358.167 102,299.5C 67.4201,238.24 66.7535,176.573 100,114.5C 134.522,59.3124 184.356,29.3124 249.5,24.5 Z M 246.5,160.5 C 275.222,158.408 293.722,171.075 302,198.5C 305.073,219.514 297.906,236.014 280.5,248C 254.396,260.515 232.562,255.348 215,232.5C 202.901,208.072 207.068,186.906 227.5,169C 233.453,165.081 239.786,162.248 246.5,160.5 Z"/></g>
<g><path style="opacity:1" fill="#bcdafe" d="M 238.5,57.5 C 304.672,53.9918 354.172,80.6585 387,137.5C 402.185,168.332 406.518,200.666 400,234.5C 396.314,250.221 390.648,265.221 383,279.5C 340.489,338.522 297.489,397.188 254,455.5C 212.421,398.01 171.088,340.343 130,282.5C 108.665,245.826 102.999,206.826 113,165.5C 133.418,104.58 175.251,68.5799 238.5,57.5 Z M 246.5,160.5 C 239.786,162.248 233.453,165.081 227.5,169C 207.068,186.906 202.901,208.072 215,232.5C 232.562,255.348 254.396,260.515 280.5,248C 297.906,236.014 305.073,219.514 302,198.5C 293.722,171.075 275.222,158.408 246.5,160.5 Z"/></g>
<g><path style="opacity:0.992" fill="#3d9ae2" d="M 244.5,127.5 C 285.672,125.484 314.506,143.151 331,180.5C 342.277,222.36 329.777,254.86 293.5,278C 257.729,294.731 225.562,289.564 197,262.5C 175.27,236.453 170.27,207.453 182,175.5C 194.82,149.013 215.653,133.013 244.5,127.5 Z M 246.5,160.5 C 239.786,162.248 233.453,165.081 227.5,169C 207.068,186.906 202.901,208.072 215,232.5C 232.562,255.348 254.396,260.515 280.5,248C 297.906,236.014 305.073,219.514 302,198.5C 293.722,171.075 275.222,158.408 246.5,160.5 Z"/></g>
</svg>
